# xmcd
#
# Track frame offsets: 
#        182
#        10837
#        25137
#        36682
#        48060
#        60452
#        71745
#        85692
#        97010
#        108427
#        121472
#        131475
#        141770
#        155840
#        165965
#        176717
#        185917
#        195787
#        205505
#        217450
#        228365
#        242585
#        255247
#        265117
#        277992
#        288615
#        299810
#        310100
#        323290
#
# Disc length: 4459 seconds
#
# Revision: 5
# Processed by: cddbd v1.5.2PL0 Copyright (c) Steve Scherf et al.
# Submitted via: ExactAudioCopyFreeDBPlugin 1.0
#
DISCID=a511691d
DTITLE=Various Artist - The Doo Wop Boxes I, II, and III [Rhino box set
DTITLE=s]
DYEAR=2000
DGENRE=Rhythm and Blues
TTITLE0=The Dominoes - Have Mercy Baby
TTITLE1=The Cardinals - Shoulldn't I Know
TTITLE2=The Swallows - Beside You
TTITLE3=The Midnighters - Sexy Ways
TTITLE4=The Colts - Adorable
TTITLE5=The Platters - (You've Got) The Magic Touch
TTITLE6=The Cadets - Stranded in the Jungle
TTITLE7=The Five Keys - Wisdom of a Fool
TTITLE8=The Drifters - Fools Fall in Love
TTITLE9=The Spaniels - Everyone's Laughing
TTITLE10=The Del Vikings - Cool Shake
TTITLE11=The Original Casuals - So Tough
TTITLE12=Lee Andrews and The Hearts - Try the Impossible
TTITLE13=The Chanters - No, No, No
TTITLE14=Wade Flemons and The Newcomers - Here I Stand
TTITLE15=The Accents - Wigggle, Wiggle
TTITLE16=The Drifters - There Goes My Baby
TTITLE17=The Skyliners - Pennies from Heaven
TTITLE18=The Safaris - Image of a Girl
TTITLE19=The Crests - Trouble in Paradise
TTITLE20=The Flamingos - Mio Amore ('Till the End of Time)
TTITLE21=The Sevilles - Charlena
TTITLE22=The Jarmels - A Little Bit of Soap
TTITLE23=Ronnie and The Hi-Lites - I Wish That We Were Married
TTITLE24=Bertha Tillman - Oh My Angel
TTITLE25=The Dreamlovers - If I Should Lose You
TTITLE26=Little Joey and The Flips - Bongo Stomp
TTITLE27=Dion DiMucci - Donna the Prima Donna
TTITLE28=The Duprees - Have You Heard
EXTD=
EXTT0=
EXTT1=
EXTT2=
EXTT3=
EXTT4=
EXTT5=
EXTT6=
EXTT7=
EXTT8=
EXTT9=
EXTT10=
EXTT11=
EXTT12=
EXTT13=
EXTT14=
EXTT15=
EXTT16=
EXTT17=
EXTT18=
EXTT19=
EXTT20=
EXTT21=
EXTT22=
EXTT23=
EXTT24=
EXTT25=
EXTT26=
EXTT27=
EXTT28=
PLAYORDER=
